# xmcd
#
# Track frame offsets:
#	150
#	12162
#	23821
#	36183
#	48912
#	62013
#	75599
#	89039
#	101595
#	115907
#	128021
#	141958
#	153870
#	167291
#	177755
#	191724
#	203942
#	215117
#	227794
#	240378
#
# Disc length: 3399 seconds
#
# Revision: 0
# Processed by: cddbd v1.5.2PL0 Copyright (c) Steve Scherf et al.
# Submitted via: EasyCDDAExtractor 10.0.2.1
#
DISCID=080d4514
DTITLE=Little Walter - Stray Dog Blues
DYEAR=2006
DGENRE=Blues
TTITLE0=Juke
TTITLE1=My Babe
TTITLE2=Off the Wall
TTITLE3=Mean Old World
TTITLE4=Can't Hold Out Much Longer
TTITLE5=Blues With Feeling
TTITLE6=You're So Fine
TTITLE7=Lights Out
TTITLE8=Blue Light
TTITLE9=Tell Me Mama
TTITLE10=Sad Hours
TTITLE11=Last Night
TTITLE12=You Better Watch Yourself
TTITLE13=I Hate To See You Go
TTITLE14=Rocker
TTITLE15=Oh Baby
TTITLE16=Crazy Legs
TTITLE17=Crazy For My Baby
TTITLE18=Mellow Down Easy
TTITLE19=Quarter To Twelve
EXTD=
EXTT0=
EXTT1=
EXTT2=
EXTT3=
EXTT4=
EXTT5=
EXTT6=
EXTT7=
EXTT8=
EXTT9=
EXTT10=
EXTT11=
EXTT12=
EXTT13=
EXTT14=
EXTT15=
EXTT16=
EXTT17=
EXTT18=
EXTT19=
PLAYORDER=
